<?xml version="1.0" encoding="UTF-8" standalone="no"?><!DOCTYPE svg PUBLIC "-//W3C//DTD SVG 1.1//EN" "http://www.w3.org/Graphics/SVG/1.1/DTD/svg11.dtd"><svg width="100%" height="100%" viewBox="0 0 2550 3300" version="1.1" xmlns="http://www.w3.org/2000/svg" xmlns:xlink="http://www.w3.org/1999/xlink" xml:space="preserve" xmlns:serif="http://www.serif.com/" style="fill-rule:evenodd;clip-rule:evenodd;stroke-linejoin:round;stroke-miterlimit:2;"><g id="Background"><rect x="339.069" y="622.085" width="1800" height="1800"/><rect x="489.069" y="772.085" width="1500" height="1500" style="fill:#fff;"/><rect x="639.069" y="922.085" width="1200" height="1200"/><rect x="789.069" y="1072.09" width="900" height="900" style="fill:#fff;"/><rect x="939.069" y="1222.09" width="600" height="600"/><rect x="1089.07" y="1372.09" width="300" height="300" style="fill:#fff;"/><path d="M1316,1489.84l0,75c0,20.696 -16.803,37.5 -37.5,37.5l-75,-0c-20.696,-0 -37.5,-16.804 -37.5,-37.5l0,-75c0,-20.697 16.804,-37.5 37.5,-37.5l75,-0c20.697,-0 37.5,16.803 37.5,37.5Z" style="fill:#cf0202;"/></g><path d="M778.734,1097.22c-12.36,-12.999 -11.84,-33.587 1.159,-45.947c13,-12.359 33.588,-11.84 45.948,1.16l134.948,141.936c3.275,3.445 5.755,7.567 7.264,12.074l140.443,419.415l388.89,130.477l281.934,-842.058c4.648,-13.883 18.005,-22.944 32.623,-22.131c14.618,0.813 26.888,11.299 29.968,25.612l319.589,1485.1c3.774,17.536 -7.399,34.837 -24.935,38.61c-17.536,3.774 -34.836,-7.399 -38.61,-24.935l-294.644,-1369.18l-254.613,760.458c-2.738,8.177 -8.613,14.931 -16.332,18.775c-7.719,3.843 -16.649,4.462 -24.824,1.719l-435.063,-145.968c-9.663,-3.242 -17.245,-10.828 -20.481,-20.493l-143.289,-427.916l-129.975,-136.706Z" style="fill:#686ac4;"/></svg>